<?xml version="1.0" encoding="utf-8"?>
<!-- Generator: Adobe Illustrator 20.0.0, SVG Export Plug-In . SVG Version: 6.00 Build 0)  -->
<svg version="1.1" xmlns="http://www.w3.org/2000/svg" xmlns:xlink="http://www.w3.org/1999/xlink" x="0px" y="0px"
	 viewBox="0 0 61.7 61.3" style="enable-background:new 0 0 61.7 61.3;" xml:space="preserve">
<style type="text/css">
	.st0{fill:none;stroke:#FFFFFF;stroke-width:5;stroke-linecap:round;stroke-miterlimit:10;}
	.st1{fill:#FFFFFF;}
</style>
<g id="Layer_2">
</g>
<g id="Layer_1">
	<g>
		
			<ellipse transform="matrix(3.091799e-03 -1 1 3.091799e-03 -2847.8398 -5720.4424)" class="st0" cx="-4293" cy="-1431.9" rx="27" ry="27"/>
	</g>
	<g>
		<path class="st1" d="M-4296.6-1457.4v22.7l7-6.9h6.7l-9.3,9l11.7,12.5h-6.6l-8.6-9.1l-0.8,0.8v21.3h-5v-50.3H-4296.6z"/>
	</g>
	<g>
		
			<ellipse transform="matrix(3.091799e-03 -1 1 3.091799e-03 -2847.8398 -5720.4424)" class="st0" cx="-4293" cy="-1431.9" rx="27" ry="27"/>
	</g>
	<g>
		<path class="st1" d="M-4296.6-1457.4v22.7l7-6.9h6.7l-9.3,9l11.7,12.5h-6.6l-8.6-9.1l-0.8,0.8v21.3h-5v-50.3H-4296.6z"/>
	</g>
	<g>
		<ellipse transform="matrix(3.091799e-03 -1 1 3.091799e-03 -0.2017 62.0138)" class="st0" cx="31" cy="31.1" rx="27" ry="27"/>
	</g>
	<g>
		<path class="st1" d="M27.4,5.6v22.7l7-6.9H41l-9.3,9l11.7,12.5h-6.6l-8.6-9.1l-0.8,0.8v21.3h-5V5.6H27.4z"/>
	</g>
	<g>
		<ellipse transform="matrix(3.091799e-03 -1 1 3.091799e-03 -0.2017 62.0138)" class="st0" cx="31" cy="31.1" rx="27" ry="27"/>
	</g>
	<g>
		<path class="st1" d="M27.4,5.6v22.7l7-6.9H41l-9.3,9l11.7,12.5h-6.6l-8.6-9.1l-0.8,0.8v21.3h-5V5.6H27.4z"/>
	</g>
</g>
</svg>
