<?xml version="1.0" encoding="utf-8"?>
<!-- Generator: Adobe Illustrator 20.0.0, SVG Export Plug-In . SVG Version: 6.00 Build 0)  -->
<svg version="1.1" xmlns="http://www.w3.org/2000/svg" xmlns:xlink="http://www.w3.org/1999/xlink" x="0px" y="0px"
	 viewBox="0 0 62 62" style="enable-background:new 0 0 62 62;" xml:space="preserve">
<style type="text/css">
	.st0{fill:none;stroke:#FFFFFF;stroke-width:5;stroke-linecap:round;stroke-miterlimit:10;}
	.st1{fill:#FFFFFF;}
	.st2{fill:#FFFFFF;stroke:#FFFFFF;stroke-width:8;stroke-linecap:round;stroke-miterlimit:10;}
</style>
<g id="Layer_2">
</g>
<g id="Layer_1">
	<g>
		
			<ellipse transform="matrix(3.091799e-03 -1 1 3.091799e-03 -2848.0068 -5719.9434)" class="st0" cx="-4292.8" cy="-1431.6" rx="27" ry="27"/>
	</g>
	<g>
		<path class="st1" d="M-4296.5-1457v22.7l7-6.9h6.7l-9.3,9l11.7,12.5h-6.6l-8.6-9.1l-0.8,0.8v21.3h-5v-50.3H-4296.5z"/>
	</g>
	<g>
		
			<ellipse transform="matrix(3.091799e-03 -1 1 3.091799e-03 -2848.0068 -5719.9434)" class="st0" cx="-4292.8" cy="-1431.6" rx="27" ry="27"/>
	</g>
	<g>
		<path class="st1" d="M-4296.5-1457v22.7l7-6.9h6.7l-9.3,9l11.7,12.5h-6.6l-8.6-9.1l-0.8,0.8v21.3h-5v-50.3H-4296.5z"/>
	</g>
	<g>
		<g>
			<line class="st2" x1="5.1" y1="53" x2="56.4" y2="53"/>
		</g>
		<g>
			<line class="st2" x1="5.1" y1="31.3" x2="56.4" y2="31.3"/>
		</g>
		<g>
			<line class="st2" x1="5.1" y1="9.7" x2="56.4" y2="9.7"/>
		</g>
	</g>
</g>
</svg>
